<svg width="32" height="32" viewBox="0 0 32 32" fill="none" xmlns="http://www.w3.org/2000/svg">
<path d="M25.0001 20H7.00008H6.58008L7.38008 24C7.61061 25.1294 8.22426 26.1444 9.11718 26.8733C10.0101 27.6022 11.1274 28.0002 12.2801 28H19.7201C20.8727 28.0002 21.9901 27.6022 22.883 26.8733C23.7759 26.1444 24.3895 25.1294 24.6201 24L25.4201 20H25.0001ZM15.0001 25C15.0001 25.2652 14.8947 25.5196 14.7072 25.7071C14.5196 25.8946 14.2653 26 14.0001 26C13.7349 26 13.4805 25.8946 13.293 25.7071C13.1054 25.5196 13.0001 25.2652 13.0001 25V23C13.0001 22.7348 13.1054 22.4804 13.293 22.2929C13.4805 22.1054 13.7349 22 14.0001 22C14.2653 22 14.5196 22.1054 14.7072 22.2929C14.8947 22.4804 15.0001 22.7348 15.0001 23V25ZM19.0001 25C19.0001 25.2652 18.8947 25.5196 18.7072 25.7071C18.5196 25.8946 18.2653 26 18.0001 26C17.7349 26 17.4805 25.8946 17.293 25.7071C17.1054 25.5196 17.0001 25.2652 17.0001 25V23C17.0001 22.7348 17.1054 22.4804 17.293 22.2929C17.4805 22.1054 17.7349 22 18.0001 22C18.2653 22 18.5196 22.1054 18.7072 22.2929C18.8947 22.4804 19.0001 22.7348 19.0001 23V25Z" fill="black"/>
<path d="M25 10H23V9C23 8.34339 22.8707 7.69321 22.6194 7.08658C22.3681 6.47995 21.9998 5.92876 21.5355 5.46447C21.0712 5.00017 20.52 4.63188 19.9134 4.3806C19.3068 4.12933 18.6566 4 18 4H14C12.6739 4 11.4021 4.52678 10.4645 5.46447C9.52678 6.40215 9 7.67392 9 9V10H7C6.20435 10 5.44129 10.3161 4.87868 10.8787C4.31607 11.4413 4 12.2044 4 13V15C4 15.7956 4.31607 16.5587 4.87868 17.1213C5.44129 17.6839 6.20435 18 7 18H25C25.7956 18 26.5587 17.6839 27.1213 17.1213C27.6839 16.5587 28 15.7956 28 15V13C28 12.2044 27.6839 11.4413 27.1213 10.8787C26.5587 10.3161 25.7956 10 25 10V10ZM11 9C11 8.20435 11.3161 7.44129 11.8787 6.87868C12.4413 6.31607 13.2044 6 14 6H18C18.7956 6 19.5587 6.31607 20.1213 6.87868C20.6839 7.44129 21 8.20435 21 9V10H11V9Z" fill="black"/>
</svg>
